<svg width="184" height="109" viewBox="0 0 184 109" fill="none" xmlns="http://www.w3.org/2000/svg">
<g clip-path="url(#clip0_12_5)">
<path d="M91.2183 109C53.523 107.25 23.5596 91.8452 2.20605 60.3011C-0.835274 55.8071 -0.642514 52.7176 2.2703 48.202C44.0349 -16.3986 141.122 -16.0097 182.115 48.9582C184.643 52.9768 184.664 55.7855 182.051 59.6961C160.312 92.1693 129.642 107.747 91.2397 108.978L91.2183 109ZM90.6828 93.552C112.636 94.3082 130.327 77.4775 131.055 55.1374C131.784 33.3374 114.564 15.4912 92.332 14.9943C70.9571 14.5189 53.2446 31.717 52.7091 53.4521C52.1951 75.1225 68.9224 92.8175 90.6614 93.552H90.6828Z" fill="#21A9DE"/>
<path d="M73.5058 53.517C86.0994 51.7021 88.0484 49.2823 87.7271 35.7788C101.006 34.2232 110.537 41.4395 111.008 53.3657C111.458 64.5574 102.998 73.4589 91.9464 73.4373C80.6807 73.4373 72.7561 64.8599 73.5058 53.517Z" fill="#21A9DE"/>
</g>
<defs>
<clipPath id="clip0_12_5">
<rect width="184" height="109" fill="white"/>
</clipPath>
</defs>
</svg>
