<svg width="62" height="62" viewBox="0 0 62 62" fill="none" xmlns="http://www.w3.org/2000/svg">
<path d="M15.3037 7.69463C15.3037 11.7597 12.0151 15.055 7.95847 15.055C3.90182 15.055 0.613251 11.7597 0.613251 7.69463C0.613251 3.62959 3.90182 0.334229 7.95847 0.334229C12.0151 0.334229 15.3037 3.62959 15.3037 7.69463Z" fill="white"/>
<path d="M1.61773 20.4652H14.1737V61.2305H1.61773V20.4652Z" fill="white"/>
<path d="M34.3887 20.4652H21.8328V61.2305H34.3887C34.3887 61.2305 34.3887 48.397 34.3887 40.3729C34.3887 35.5567 35.9236 30.7195 42.0478 30.7195C48.969 30.7195 48.9274 37.0222 48.8951 41.905C48.8529 48.2876 48.9536 54.801 48.9536 61.2305H61.5095V39.7155C61.4032 25.9776 58.0621 19.6474 47.0702 19.6474C40.5425 19.6474 36.4962 22.8226 34.3887 25.6953V20.4652Z" fill="white"/>
</svg>
