<svg width="62" height="61" viewBox="0 0 62 61" fill="none" xmlns="http://www.w3.org/2000/svg">
<g clip-path="url(#clip0_35_2)">
<path d="M17.2699 0.016132C4.17454 9.89694 4.13678 31.3683 11.2885 42.344C13.1762 45.2403 11.2723 47.5702 9.84845 50.0836C11.7308 50.4072 13.4513 50.3856 15.01 49.76C16.9247 48.9887 18.4456 49.4418 20.2632 50.24C32.954 55.8168 45.4453 55.6766 57.5158 48.39C58.875 47.5702 60.0508 46.4376 61.3128 45.456C61.1025 47.3221 61.1025 49.2422 60.6494 51.049C59.1986 56.8524 54.3013 60.8166 48.0557 60.8921C36.4706 61.0377 24.8854 61.0539 13.3003 60.8813C6.19169 60.7788 1.03554 55.9571 0.38833 48.9348C-0.339787 41.0603 0.183378 33.1535 0.129444 25.2575C0.102476 20.8672 -0.17259 16.4608 0.345182 12.0759C1.17577 5.02126 6.13776 0.382887 13.2302 0.0323124C14.5731 -0.0324091 15.9215 0.016132 17.2699 0.016132Z" fill="white"/>
<path d="M22.7334 22.6633C20.1715 22.6633 18.1328 22.6633 16.0941 22.6633C15.2904 22.6633 14.4868 22.7981 14.4652 21.5145C14.4437 20.2416 15.0477 20.0421 16.1103 20.0583C18.7099 20.1014 21.3149 20.0421 23.92 20.0906C24.6805 20.1068 25.7268 19.6538 26.1529 20.4196C26.7138 21.4228 25.8293 22.2588 25.2306 23.0193C23.1811 25.6243 21.11 28.2186 19.0497 30.8182C18.7746 31.1688 18.5157 31.5301 18.0519 32.1612C20.3927 32.7437 22.5878 32.3176 24.7398 32.4686C25.387 32.5171 26.2661 32.1774 26.3362 33.3316C26.401 34.3779 25.8023 34.8148 24.8692 34.8255C21.7302 34.8579 18.5643 35.079 15.4523 34.7824C12.9119 34.5397 14.5569 32.9432 15.1394 32.172C17.464 29.1031 19.9396 26.1421 22.728 22.6741L22.7334 22.6633Z" fill="white"/>
<path d="M38.4715 29.4698C38.4715 30.3652 38.5039 31.2659 38.4661 32.1612C38.4068 33.6821 39.0109 35.9582 36.0445 34.2107C35.6184 33.9572 34.7285 34.5019 34.0489 34.6583C31.4708 35.2624 29.4375 34.3725 28.0082 32.2313C26.6329 30.1656 26.6707 27.9597 28.0676 25.9317C29.5292 23.8175 31.692 22.7172 34.119 23.715C35.613 24.3353 37.5978 22.7388 38.2073 24.1681C38.8545 25.6836 38.3529 27.6846 38.3529 29.4698C38.3906 29.4698 38.4284 29.4698 38.4715 29.4698ZM33.1158 32.474C34.9442 32.2313 36.12 31.1364 36.0714 28.9736C36.0283 27.0428 34.475 25.6243 32.5387 25.8023C30.5378 25.9857 29.4914 27.1776 29.4537 29.1624C29.4159 31.0933 30.9423 32.5387 33.1158 32.474Z" fill="white"/>
<path d="M44.7387 28.9143C44.8789 25.7915 47.7159 23.1379 50.7686 23.2781C53.8806 23.4184 56.5072 26.2715 56.3616 29.3566C56.2106 32.5063 53.379 35.1545 50.3371 34.9927C47.2143 34.8201 44.6039 31.994 44.7387 28.9197V28.9143ZM53.9561 29.0869C53.7835 27.0158 52.6833 25.7699 50.5529 25.7753C48.4117 25.7753 47.1873 27.0482 47.1981 29.1408C47.2089 31.2227 48.4332 32.5225 50.5636 32.5063C52.6779 32.4902 53.7835 31.2227 53.9561 29.0869Z" fill="white"/>
<path d="M43.0668 27.5013C43.0668 29.3782 43.0829 31.2605 43.0614 33.1374C43.0506 33.8871 43.3202 34.8472 42.0042 34.8364C40.7961 34.8256 40.521 34.1298 40.5264 33.0889C40.548 29.1517 40.5588 25.2145 40.521 21.2772C40.5103 20.1716 41.0172 19.9504 41.9881 19.9343C43.0775 19.9181 43.0775 20.5599 43.0721 21.3204C43.0614 23.3807 43.0721 25.4356 43.0721 27.4959L43.0668 27.5013Z" fill="white"/>
</g>
<defs>
<clipPath id="clip0_35_2">
<rect width="61.3074" height="61" fill="white"/>
</clipPath>
</defs>
</svg>
